<?xml version="1.0" encoding="UTF-8"?>
<svg width="752pt" height="752pt" version="1.1" viewBox="0 0 752 752" xmlns="http://www.w3.org/2000/svg">
 <g fill="#fff">
  <path d="m376 188.54c-49.039 0-88.797 39.754-88.797 88.797v118.39c0 49.039 39.758 88.797 88.797 88.797 49.043 0 88.797-39.758 88.797-88.797v-118.39c0-49.043-39.754-88.797-88.797-88.797zm0-29.598c65.391 0 118.4 53.004 118.4 118.39v118.39c0 65.387-53.008 118.39-118.4 118.39-65.387 0-118.39-53.008-118.39-118.39v-118.39c0-65.391 53.008-118.39 118.39-118.39z"/>
  <path d="m361.2 247.74c0-8.1719 6.625-14.797 14.797-14.797 8.1758 0 14.801 6.625 14.801 14.797v78.934c0 8.1719-6.625 14.797-14.801 14.797-8.1719 0-14.797-6.625-14.797-14.797z"/>
  <path d="m383.34 596.04c-7.0977 4.0547-16.137 1.5898-20.191-5.5078-4.0547-7.0977-1.5898-16.137 5.5078-20.191l69.062-39.465c7.0977-4.0547 16.137-1.5898 20.191 5.5078 4.0547 7.0938 1.5898 16.137-5.5078 20.191z"/>
  <path d="m383.34 570.34c7.0977 4.0547 9.5625 13.094 5.5078 20.191-4.0547 7.0977-13.098 9.5625-20.191 5.5078l-69.066-39.465c-7.0938-4.0547-9.5625-13.098-5.5039-20.191 4.0547-7.0977 13.094-9.5625 20.191-5.5078z"/>
 </g>
</svg>
